<svg width="1272" height="832" viewBox="0 0 1272 832" fill="none" xmlns="http://www.w3.org/2000/svg">
<path opacity="0.81" d="M352.733 143.71L360.324 100.658C364.575 76.5491 386.858 60.9464 410.967 65.1975L403.376 108.249C399.125 132.358 376.842 147.961 352.733 143.71Z" fill="#B6B3F3"/>
<path opacity="0.82" d="M364.445 305.377L373.593 262.339C378.716 238.237 401.677 223.326 425.779 228.449L416.631 271.487C411.508 295.588 388.546 310.5 364.445 305.377Z" fill="#B6B3F3"/>
<path opacity="0.82" d="M396.115 438.747L406.813 395.841C412.804 371.813 436.39 357.641 460.418 363.632L449.72 406.539C443.729 430.566 420.143 444.738 396.115 438.747Z" fill="#B6B3F3"/>
<path opacity="0.67" d="M848.24 218.211L820.852 194.404C805.515 181.071 803.94 158.546 817.272 143.209L844.66 167.016C859.997 180.348 861.572 202.874 848.24 218.211Z" fill="#B6B3F3"/>
<g opacity="0.59" filter="url(#filter0_f_74_493)">
<path d="M968.676 243.6L936.901 239.699C919.107 237.514 906.842 221.816 909.027 204.022L940.802 207.924C958.597 210.108 970.861 225.806 968.676 243.6Z" fill="#B6B3F3"/>
</g>
<g opacity="0.59" filter="url(#filter1_f_74_493)">
<path d="M963.703 495.578L931.928 491.676C914.133 489.491 901.869 473.793 904.054 455.999L935.829 459.901C953.623 462.086 965.888 477.783 963.703 495.578Z" fill="#B6B3F3"/>
</g>
<g opacity="0.51" filter="url(#filter2_f_74_493)">
<path d="M1128.99 505.392L1104.29 517.98C1090.45 525.029 1074.05 519.697 1067 505.863L1091.7 493.276C1105.54 486.227 1121.94 491.558 1128.99 505.392Z" fill="#B6B3F3"/>
</g>
<path opacity="0.78" d="M240.311 128.101L236.661 86.3856C234.618 63.0252 251.366 43.0647 274.727 41.0209L278.377 82.736C280.42 106.097 263.672 126.057 240.311 128.101Z" fill="#B6B3F3"/>
<path opacity="0.82" d="M513.056 494.667L524.539 451.812C530.969 427.813 554.878 414.009 578.877 420.439L567.394 463.295C560.963 487.294 537.055 501.097 513.056 494.667Z" fill="#B6B3F3"/>
<g opacity="0.58" filter="url(#filter3_f_74_493)">
<path d="M996.481 105.087H965.376C947.956 105.087 934.27 91.4004 934.27 73.9812H965.376C982.795 73.9812 996.481 87.6677 996.481 105.087Z" fill="#B6B3F3"/>
</g>
<path opacity="0.65" d="M70.2555 582.693L40.7063 563.504C24.1588 552.758 19.6005 531.312 30.3466 514.765L59.8958 533.954C76.4434 544.701 81.0016 566.146 70.2555 582.693Z" fill="#B6B3F3"/>
<path opacity="0.73" d="M174.42 783.55L159.57 746.795C151.254 726.212 160.892 703.505 181.475 695.189L196.325 731.945C204.641 752.527 195.003 775.234 174.42 783.55Z" fill="#B6B3F3"/>
<path opacity="0.8" d="M286.148 429.275L289.144 386.43C290.822 362.437 310.992 344.903 334.985 346.581L331.989 389.426C330.312 413.419 310.141 430.953 286.148 429.275Z" fill="#B6B3F3"/>
<g opacity="0.5" filter="url(#filter4_f_74_493)">
<path d="M1159.89 362.895L1136.3 376.514C1123.09 384.141 1106.72 379.754 1099.09 366.544L1122.68 352.925C1135.89 345.298 1152.26 349.685 1159.89 362.895Z" fill="#B6B3F3"/>
</g>
<path opacity="0.82" d="M527.789 638.17L537.72 595.153C543.281 571.064 566.579 556.506 590.668 562.068L580.737 605.085C575.175 629.174 551.878 643.732 527.789 638.17Z" fill="#B6B3F3"/>
<path opacity="0.79" d="M646.618 551.128L647.361 508.572C647.777 484.74 666.829 466.342 690.66 466.758L689.917 509.315C689.502 533.146 670.45 551.544 646.618 551.128Z" fill="#B6B3F3"/>
<path opacity="0.77" d="M680.437 695.179L676.076 653.69C673.634 630.455 689.971 610.281 713.205 607.839L717.566 649.329C720.008 672.563 703.671 692.737 680.437 695.179Z" fill="#B6B3F3"/>
<g opacity="0.53" filter="url(#filter5_f_74_493)">
<path d="M1080.17 215.355L1052.72 224.274C1037.35 229.268 1021.35 221.115 1016.35 205.744L1043.8 196.825C1059.17 191.83 1075.18 199.984 1080.17 215.355Z" fill="#B6B3F3"/>
</g>
<path opacity="0.82" d="M394.458 573.025L405.156 530.118C411.146 506.09 434.732 491.919 458.76 497.909L448.062 540.816C442.071 564.844 418.485 579.015 394.458 573.025Z" fill="#B6B3F3"/>
<g opacity="0.58" filter="url(#filter6_f_74_493)">
<path d="M1001.45 771.5H970.349C952.93 771.5 939.243 757.813 939.243 740.394H970.349C987.768 740.394 1001.45 754.081 1001.45 771.5Z" fill="#B6B3F3"/>
</g>
<g opacity="0.47" filter="url(#filter7_f_74_493)">
<path d="M1266.36 447.795L1247.64 465.26C1237.15 475.04 1221.22 474.484 1211.44 463.996L1230.17 446.531C1240.66 436.751 1256.58 437.307 1266.36 447.795Z" fill="#B6B3F3"/>
</g>
<path opacity="0.69" d="M806.012 589.446L781.944 560.763C768.466 544.701 770.497 521.49 786.559 508.012L810.627 536.695C824.105 552.758 822.074 575.968 806.012 589.446Z" fill="#B6B3F3"/>
<path opacity="0.63" d="M900.547 360.539L869.206 347.235C851.655 339.785 843.718 320.142 851.168 302.591L882.509 315.894C900.06 323.344 907.997 342.988 900.547 360.539Z" fill="#B6B3F3"/>
<path opacity="0.69" d="M794.408 458.484L770.34 429.801C756.862 413.739 758.893 390.529 774.955 377.051L799.023 405.733C812.501 421.796 810.47 445.006 794.408 458.484Z" fill="#B6B3F3"/>
<path opacity="0.82" d="M462.61 218.979L474.865 176.24C481.728 152.307 505.925 138.894 529.859 145.757L517.603 188.495C510.741 212.429 486.543 225.842 462.61 218.979Z" fill="#B6B3F3"/>
<g opacity="0.55" filter="url(#filter8_f_74_493)">
<path d="M1043.75 611.738L1014.86 617.877C998.686 621.316 983.275 611.308 979.837 595.132L1008.72 588.992C1024.9 585.553 1040.31 595.562 1043.75 611.738Z" fill="#B6B3F3"/>
</g>
<path opacity="0.81" d="M248.252 11.148L255.855 -31.9669C260.112 -56.1112 282.427 -71.7367 306.572 -67.4794L298.969 -24.3646C294.712 -0.22024 272.397 15.4053 248.252 11.148Z" fill="#B6B3F3"/>
<path opacity="0.65" d="M66.9401 705.366L37.3909 686.177C20.8433 675.431 16.285 653.986 27.0311 637.438L56.5803 656.628C73.1279 667.374 77.6862 688.819 66.9401 705.366Z" fill="#B6B3F3"/>
<path opacity="0.7" d="M143.451 345.19L121.17 314.523C108.693 297.35 112.383 274.053 129.556 261.576L151.837 292.243C164.314 309.416 160.625 332.713 143.451 345.19Z" fill="#B6B3F3"/>
<path opacity="0.64" d="M53.756 350.46L22.878 335.399C5.58632 326.966 -1.37352 306.753 7.0602 289.461L37.9382 304.521C55.2299 312.955 62.1897 333.168 53.756 350.46Z" fill="#B6B3F3"/>
<path opacity="0.72" d="M161.554 212.432L142.75 178.508C132.22 159.511 138.872 136.31 157.87 125.78L176.674 159.704C187.204 178.701 180.552 201.901 161.554 212.432Z" fill="#B6B3F3"/>
<path opacity="0.79" d="M286.023 800.06V757.605C286.023 733.83 304.704 715.149 328.479 715.149V757.605C328.479 781.38 309.799 800.06 286.023 800.06Z" fill="#B6B3F3"/>
<path opacity="0.79" d="M269.446 548.083V505.628C269.446 481.853 288.127 463.172 311.902 463.172V505.628C311.902 529.403 293.221 548.083 269.446 548.083Z" fill="#B6B3F3"/>
<path opacity="0.79" d="M271.104 238.085V195.63C271.104 171.854 289.784 153.174 313.559 153.174V195.63C313.559 219.405 294.879 238.085 271.104 238.085Z" fill="#B6B3F3"/>
<g opacity="0.47" filter="url(#filter9_f_74_493)">
<path d="M1266.36 739.558L1247.64 757.023C1237.15 766.803 1221.22 766.247 1211.44 755.759L1230.17 738.294C1240.66 728.514 1256.58 729.07 1266.36 739.558Z" fill="#B6B3F3"/>
</g>
<path opacity="0.65" d="M56.9936 111.894L27.4444 92.7045C10.8968 81.9584 6.33854 60.5133 17.0847 43.9658L46.6339 63.1553C63.1814 73.9014 67.7397 95.3464 56.9936 111.894Z" stroke="#B6B3F3" stroke-width="1.27523"/>
<path opacity="0.65" d="M65.2823 829.697L35.7331 810.508C19.1855 799.761 14.6272 778.316 25.3734 761.769L54.9226 780.958C71.4701 791.704 76.0284 813.149 65.2823 829.697Z" stroke="#B6B3F3" stroke-width="1.27523"/>
<path opacity="0.65" d="M63.6246 468.309L34.0754 449.119C17.5278 438.373 12.9695 416.928 23.7156 400.381L53.2648 419.57C69.8124 430.316 74.3707 451.761 63.6246 468.309Z" stroke="#B6B3F3" stroke-width="1.27523"/>
<path opacity="0.65" d="M58.6513 232.909L29.1021 213.72C12.5546 202.974 7.99629 181.529 18.7424 164.981L48.2916 184.171C64.8392 194.917 69.3974 216.362 58.6513 232.909Z" stroke="#B6B3F3" stroke-width="1.27523"/>
<path opacity="0.81" d="M574.824 133.826L582.427 90.7057C586.685 66.5585 609.003 50.9311 633.151 55.1889L625.547 98.3089C621.29 122.456 598.971 138.083 574.824 133.826Z" stroke="#B6B3F3" stroke-width="1.58475"/>
<path opacity="0.82" d="M495.762 351.601L508.018 308.859C514.882 284.924 539.08 271.51 563.015 278.374L550.76 321.115C543.896 345.05 519.698 358.464 495.762 351.601Z" stroke="#B6B3F3" stroke-width="1.60931"/>
<g opacity="0.55" filter="url(#filter10_f_74_493)">
<path d="M1038.77 366.391L1009.89 372.531C993.713 375.97 978.302 365.961 974.864 349.786L1003.75 343.646C1019.93 340.207 1035.34 350.216 1038.77 366.391Z" stroke="#B6B3F3" stroke-width="1.06883"/>
</g>
<g opacity="0.5" filter="url(#filter11_f_74_493)">
<path d="M1143.31 682.839L1119.72 696.459C1106.51 704.086 1090.14 699.699 1082.52 686.489L1106.1 672.869C1119.31 665.242 1135.69 669.629 1143.31 682.839Z" stroke="#B6B3F3" stroke-width="0.985873"/>
</g>
<path opacity="0.78" d="M370.457 5.26044L367.527 -36.647C365.886 -60.1151 383.036 -79.8437 406.504 -81.4848L409.434 -39.5774C411.075 -16.1093 393.926 3.61939 370.457 5.26044Z" stroke="#B6B3F3" stroke-width="1.52049"/>
<path opacity="0.82" d="M404.404 846.552L415.102 803.646C421.093 779.618 444.679 765.446 468.706 771.437L458.009 814.344C452.018 838.371 428.432 852.543 404.404 846.552Z" stroke="#B6B3F3" stroke-width="1.60049"/>
<path opacity="0.81" d="M462.911 87.7399L469.731 44.6805C473.55 20.5672 495.497 4.62183 519.61 8.441L512.791 51.5004C508.971 75.6137 487.024 91.5591 462.911 87.7399Z" stroke="#B6B3F3" stroke-width="1.57791"/>
<g opacity="0.47" filter="url(#filter12_f_74_493)">
<path d="M1259.73 588.703L1241 606.168C1230.52 615.948 1214.59 615.392 1204.81 604.904L1223.54 587.439C1234.03 577.659 1249.95 578.215 1259.73 588.703Z" stroke="#B6B3F3" stroke-width="0.926858"/>
</g>
<path opacity="0.67" d="M836.636 771.898L809.248 748.09C793.911 734.758 792.336 712.232 805.668 696.895L833.056 720.703C848.393 734.035 849.968 756.561 836.636 771.898Z" stroke="#B6B3F3" stroke-width="1.31343"/>
<path opacity="0.8" d="M602.821 266.229L607.343 223.208C609.875 199.116 630.794 182.177 654.886 184.709L650.364 227.73C647.832 251.822 626.913 268.761 602.821 266.229Z" stroke="#B6B3F3" stroke-width="1.56567"/>
<path opacity="0.62" d="M864.703 83.6926L832.862 73.9577C815.031 68.5061 805.304 50.2125 810.755 32.3813L842.597 42.1162C860.428 47.5678 870.155 65.8614 864.703 83.6926Z" stroke="#B6B3F3" stroke-width="1.20512"/>
<path opacity="0.8" d="M287.806 671.306L290.802 628.46C292.48 604.467 312.65 586.933 336.643 588.611L333.647 631.457C331.969 655.45 311.799 672.984 287.806 671.306Z" stroke="#B6B3F3" stroke-width="1.55452"/>
<g opacity="0.49" filter="url(#filter13_f_74_493)">
<path d="M1185.72 224.909L1163.51 239.89C1151.07 248.279 1134.7 245.098 1126.32 232.66L1148.53 217.679C1160.96 209.29 1177.33 212.471 1185.72 224.909Z" stroke="#B6B3F3" stroke-width="0.96965"/>
</g>
<path opacity="0.79" d="M631.699 410.22L632.442 367.664C632.858 343.832 651.909 325.434 675.741 325.85L674.998 368.406C674.582 392.238 655.53 410.636 631.699 410.22Z" stroke="#B6B3F3" stroke-width="1.5405"/>
<path opacity="0.63" d="M913.809 653.959L882.468 640.656C864.917 633.206 856.98 613.562 864.43 596.011L895.771 609.315C913.322 616.765 921.258 636.408 913.809 653.959Z" stroke="#B6B3F3" stroke-width="1.23231"/>
<path opacity="0.72" d="M173.159 485.959L154.354 452.036C143.824 433.038 150.477 409.838 169.474 399.308L188.278 433.231C198.809 452.229 192.156 475.429 173.159 485.959Z" stroke="#B6B3F3" stroke-width="1.40384"/>
<path opacity="0.76" d="M231.123 344.223L223.968 303.645C219.961 280.921 234.667 259.919 257.391 255.912L264.546 296.49C268.553 319.214 253.847 340.216 231.123 344.223Z" stroke="#B6B3F3" stroke-width="1.49132"/>
<defs>
<filter id="filter0_f_74_493" x="907.23" y="202.477" width="63.2426" height="42.6683" filterUnits="userSpaceOnUse" color-interpolation-filters="sRGB">
<feFlood flood-opacity="0" result="BackgroundImageFix"/>
<feBlend mode="normal" in="SourceGraphic" in2="BackgroundImageFix" result="shape"/>
<feGaussianBlur stdDeviation="0.772471" result="effect1_foregroundBlur_74_493"/>
</filter>
<filter id="filter1_f_74_493" x="902.257" y="454.454" width="63.2426" height="42.6683" filterUnits="userSpaceOnUse" color-interpolation-filters="sRGB">
<feFlood flood-opacity="0" result="BackgroundImageFix"/>
<feBlend mode="normal" in="SourceGraphic" in2="BackgroundImageFix" result="shape"/>
<feGaussianBlur stdDeviation="0.772471" result="effect1_foregroundBlur_74_493"/>
</filter>
<filter id="filter2_f_74_493" x="1065.66" y="488.832" width="64.6713" height="33.5922" filterUnits="userSpaceOnUse" color-interpolation-filters="sRGB">
<feFlood flood-opacity="0" result="BackgroundImageFix"/>
<feBlend mode="normal" in="SourceGraphic" in2="BackgroundImageFix" result="shape"/>
<feGaussianBlur stdDeviation="0.669004" result="effect1_foregroundBlur_74_493"/>
</filter>
<filter id="filter3_f_74_493" x="932.769" y="72.4801" width="65.2136" height="34.1079" filterUnits="userSpaceOnUse" color-interpolation-filters="sRGB">
<feFlood flood-opacity="0" result="BackgroundImageFix"/>
<feBlend mode="normal" in="SourceGraphic" in2="BackgroundImageFix" result="shape"/>
<feGaussianBlur stdDeviation="0.750555" result="effect1_foregroundBlur_74_493"/>
</filter>
<filter id="filter4_f_74_493" x="1097.78" y="347.87" width="63.4273" height="33.6995" filterUnits="userSpaceOnUse" color-interpolation-filters="sRGB">
<feFlood flood-opacity="0" result="BackgroundImageFix"/>
<feBlend mode="normal" in="SourceGraphic" in2="BackgroundImageFix" result="shape"/>
<feGaussianBlur stdDeviation="0.657249" result="effect1_foregroundBlur_74_493"/>
</filter>
<filter id="filter5_f_74_493" x="1014.96" y="193.966" width="66.6025" height="33.1676" filterUnits="userSpaceOnUse" color-interpolation-filters="sRGB">
<feFlood flood-opacity="0" result="BackgroundImageFix"/>
<feBlend mode="normal" in="SourceGraphic" in2="BackgroundImageFix" result="shape"/>
<feGaussianBlur stdDeviation="0.696409" result="effect1_foregroundBlur_74_493"/>
</filter>
<filter id="filter6_f_74_493" x="937.742" y="738.893" width="65.2136" height="34.1079" filterUnits="userSpaceOnUse" color-interpolation-filters="sRGB">
<feFlood flood-opacity="0" result="BackgroundImageFix"/>
<feBlend mode="normal" in="SourceGraphic" in2="BackgroundImageFix" result="shape"/>
<feGaussianBlur stdDeviation="0.750555" result="effect1_foregroundBlur_74_493"/>
</filter>
<filter id="filter7_f_74_493" x="1210.21" y="438.311" width="57.3937" height="35.1683" filterUnits="userSpaceOnUse" color-interpolation-filters="sRGB">
<feFlood flood-opacity="0" result="BackgroundImageFix"/>
<feBlend mode="normal" in="SourceGraphic" in2="BackgroundImageFix" result="shape"/>
<feGaussianBlur stdDeviation="0.617905" result="effect1_foregroundBlur_74_493"/>
</filter>
<filter id="filter8_f_74_493" x="978.412" y="586.891" width="66.7612" height="33.0867" filterUnits="userSpaceOnUse" color-interpolation-filters="sRGB">
<feFlood flood-opacity="0" result="BackgroundImageFix"/>
<feBlend mode="normal" in="SourceGraphic" in2="BackgroundImageFix" result="shape"/>
<feGaussianBlur stdDeviation="0.712556" result="effect1_foregroundBlur_74_493"/>
</filter>
<filter id="filter9_f_74_493" x="1210.21" y="730.074" width="57.3937" height="35.1683" filterUnits="userSpaceOnUse" color-interpolation-filters="sRGB">
<feFlood flood-opacity="0" result="BackgroundImageFix"/>
<feBlend mode="normal" in="SourceGraphic" in2="BackgroundImageFix" result="shape"/>
<feGaussianBlur stdDeviation="0.617905" result="effect1_foregroundBlur_74_493"/>
</filter>
<filter id="filter10_f_74_493" x="972.805" y="341.011" width="68.0289" height="34.1557" filterUnits="userSpaceOnUse" color-interpolation-filters="sRGB">
<feFlood flood-opacity="0" result="BackgroundImageFix"/>
<feBlend mode="normal" in="SourceGraphic" in2="BackgroundImageFix" result="shape"/>
<feGaussianBlur stdDeviation="0.712556" result="effect1_foregroundBlur_74_493"/>
</filter>
<filter id="filter11_f_74_493" x="1080.53" y="667.321" width="64.774" height="34.6855" filterUnits="userSpaceOnUse" color-interpolation-filters="sRGB">
<feFlood flood-opacity="0" result="BackgroundImageFix"/>
<feBlend mode="normal" in="SourceGraphic" in2="BackgroundImageFix" result="shape"/>
<feGaussianBlur stdDeviation="0.657249" result="effect1_foregroundBlur_74_493"/>
</filter>
<filter id="filter12_f_74_493" x="1202.92" y="578.756" width="58.7037" height="36.0951" filterUnits="userSpaceOnUse" color-interpolation-filters="sRGB">
<feFlood flood-opacity="0" result="BackgroundImageFix"/>
<feBlend mode="normal" in="SourceGraphic" in2="BackgroundImageFix" result="shape"/>
<feGaussianBlur stdDeviation="0.617905" result="effect1_foregroundBlur_74_493"/>
</filter>
<filter id="filter13_f_74_493" x="1124.35" y="211.223" width="63.3335" height="35.1237" filterUnits="userSpaceOnUse" color-interpolation-filters="sRGB">
<feFlood flood-opacity="0" result="BackgroundImageFix"/>
<feBlend mode="normal" in="SourceGraphic" in2="BackgroundImageFix" result="shape"/>
<feGaussianBlur stdDeviation="0.646433" result="effect1_foregroundBlur_74_493"/>
</filter>
</defs>
</svg>
