<svg width="12" height="15" viewBox="0 0 12 15" fill="none" xmlns="http://www.w3.org/2000/svg">
<path d="M6 0.4375C4.54131 0.4375 3.14236 1.01696 2.11091 2.04841C1.07946 3.07986 0.5 4.47881 0.5 5.9375C0.5 9.65 5.34688 13.8438 5.55313 14.0225C5.67765 14.129 5.83613 14.1875 6 14.1875C6.16387 14.1875 6.32235 14.129 6.44687 14.0225C6.6875 13.8438 11.5 9.65 11.5 5.9375C11.5 4.47881 10.9205 3.07986 9.88909 2.04841C8.85764 1.01696 7.45869 0.4375 6 0.4375ZM6 12.5719C4.53562 11.1969 1.875 8.23375 1.875 5.9375C1.875 4.84348 2.3096 3.79427 3.08318 3.02068C3.85677 2.2471 4.90598 1.8125 6 1.8125C7.09402 1.8125 8.14323 2.2471 8.91682 3.02068C9.6904 3.79427 10.125 4.84348 10.125 5.9375C10.125 8.23375 7.46438 11.2037 6 12.5719ZM6 3.1875C5.4561 3.1875 4.92442 3.34878 4.47218 3.65096C4.01995 3.95313 3.66747 4.38262 3.45933 4.88512C3.25119 5.38762 3.19673 5.94055 3.30284 6.474C3.40895 7.00745 3.67086 7.49745 4.05546 7.88204C4.44005 8.26664 4.93005 8.52855 5.4635 8.63466C5.99695 8.74077 6.54988 8.68631 7.05238 8.47817C7.55488 8.27003 7.98437 7.91755 8.28654 7.46532C8.58872 7.01308 8.75 6.4814 8.75 5.9375C8.75 5.20815 8.46027 4.50868 7.94454 3.99296C7.42882 3.47723 6.72935 3.1875 6 3.1875ZM6 7.3125C5.72805 7.3125 5.46221 7.23186 5.23609 7.08077C5.00997 6.92968 4.83374 6.71494 4.72967 6.46369C4.6256 6.21244 4.59837 5.93597 4.65142 5.66925C4.70447 5.40253 4.83543 5.15753 5.02773 4.96523C5.22003 4.77293 5.46503 4.64197 5.73175 4.58892C5.99847 4.53587 6.27494 4.5631 6.52619 4.66717C6.77744 4.77124 6.99218 4.94747 7.14327 5.17359C7.29436 5.39971 7.375 5.66555 7.375 5.9375C7.375 6.30217 7.23013 6.65191 6.97227 6.90977C6.71441 7.16763 6.36467 7.3125 6 7.3125Z" fill="white"/>
</svg>
